<?xml version="1.0" standalone="no"?>
<!DOCTYPE svg PUBLIC "-//W3C//DTD SVG 20010904//EN"
 "http://www.w3.org/TR/2001/REC-SVG-20010904/DTD/svg10.dtd">
<svg version="1.0" xmlns="http://www.w3.org/2000/svg"
 width="300.000000pt" height="411.000000pt" viewBox="0 0 300.000000 411.000000"
 preserveAspectRatio="xMidYMid meet">
<metadata>
Created by potrace 1.10, written by Peter Selinger 2001-2011
</metadata>
<g transform="translate(0.000000,411.000000) scale(0.100000,-0.100000)"
fill="#000000" stroke="none">
<path d="M1559 3658 c-5 -24 -3 -34 11 -40 23 -10 40 -9 40 3 0 6 -7 8 -15 5
-10 -4 -19 2 -25 17 -5 12 -10 19 -11 15z"/>
<path d="M1620 3646 c0 -7 5 -17 11 -23 9 -9 5 -14 -15 -19 -14 -3 -26 -10
-26 -15 0 -12 17 -11 25 1 5 8 11 8 20 0 9 -8 15 -8 20 0 10 16 24 2 20 -20
-2 -13 2 -20 11 -20 8 0 14 5 14 10 0 6 -3 10 -8 10 -11 0 -9 65 3 67 6 1 9
-4 7 -12 -3 -17 14 -29 23 -15 3 5 2 10 -4 10 -6 0 -8 7 -5 15 4 8 2 15 -2 16
-72 7 -94 6 -94 -5z m52 -21 c8 -13 7 -16 -1 -11 -6 4 -11 2 -11 -3 0 -6 -5
-11 -11 -11 -5 0 -7 5 -4 10 4 6 2 17 -5 25 -9 10 -8 13 6 11 9 -1 21 -11 26
-21z"/>
<path d="M1735 3632 c4 -9 8 -30 9 -47 1 -21 7 -31 21 -33 11 -2 16 0 10 5
-16 13 -18 83 -2 77 7 -2 12 -17 12 -32 -1 -15 2 -37 7 -49 8 -24 1 -53 -13
-53 -4 0 -6 7 -3 15 4 8 2 15 -3 15 -5 0 -10 -11 -11 -26 -2 -25 -2 -25 27 -8
16 10 27 23 25 29 -4 8 4 11 20 10 14 -2 26 1 26 7 0 6 -9 8 -20 5 -24 -6 -38
10 -35 41 1 12 -2 22 -6 22 -5 0 -6 7 -2 16 5 14 9 12 20 -10 15 -28 26 -34
21 -12 -2 8 2 15 7 15 6 0 9 -9 8 -19 -2 -13 2 -17 12 -14 7 3 12 11 9 19 -4
9 2 11 20 8 16 -3 26 -1 26 6 0 6 -6 11 -12 12 -7 0 -29 3 -48 5 -130 14 -132
13 -125 -4z"/>
<path d="M1930 3619 c0 -12 33 -16 58 -7 12 4 22 4 22 -1 0 -5 8 -8 18 -6 9 1
26 -2 37 -8 19 -10 19 -10 0 -19 -15 -6 -13 -7 9 -3 22 5 27 3 23 -9 -3 -8 3
-22 14 -32 10 -9 19 -22 18 -28 0 -6 -3 -6 -6 2 -2 6 -11 12 -19 12 -8 0 -11
-6 -8 -15 4 -8 12 -15 19 -15 8 0 17 -4 20 -10 3 -6 -1 -7 -9 -4 -9 3 -16 1
-16 -5 0 -6 4 -11 10 -11 5 0 7 -8 4 -17 -5 -16 -4 -16 10 1 17 22 20 18 31
-49 8 -49 15 -61 25 -45 4 7 6 -2 5 -21 -2 -19 -4 -40 -4 -46 -1 -7 -8 -13
-16 -13 -8 0 -14 -6 -13 -12 2 -7 -3 -12 -10 -10 -9 1 -8 -5 4 -23 9 -14 12
-25 8 -25 -5 0 -9 -15 -8 -32 0 -47 -7 -67 -17 -42 -7 15 -8 13 -9 -11 -2
-106 -4 -115 -17 -115 -10 0 -12 -6 -8 -21 5 -15 4 -19 -5 -14 -9 6 -9 3 -1
-14 8 -14 9 -27 2 -40 -6 -10 -7 -22 -3 -26 4 -5 1 -5 -6 -1 -7 4 -10 12 -7
17 4 5 2 9 -3 9 -5 0 -8 -22 -6 -50 1 -27 -3 -53 -8 -57 -7 -4 -8 -1 -3 7 5 8
4 11 -3 6 -6 -4 -8 -13 -5 -22 3 -8 -3 -23 -15 -34 -19 -18 -21 -18 -25 -2 -3
12 -5 11 -6 -6 -1 -13 -10 -27 -23 -33 -19 -8 -18 -9 11 -4 18 3 37 5 42 5 5
0 9 6 9 14 0 8 9 17 19 21 13 4 18 12 14 22 -4 11 -2 14 5 9 8 -4 12 0 12 11
0 10 9 54 21 98 11 44 22 94 25 110 3 17 11 53 19 80 7 28 16 64 18 80 3 17
13 61 22 99 15 63 15 74 1 117 -9 26 -16 54 -16 61 0 8 -10 25 -22 38 -12 13
-23 31 -25 39 -1 9 -8 20 -16 26 -7 5 -16 18 -20 27 -10 26 -62 49 -122 51
-30 2 -55 0 -55 -4z"/>
<path d="M1490 3590 c-9 -16 -8 -20 6 -20 10 0 14 3 10 7 -3 4 4 13 16 20 l23
12 -22 1 c-12 0 -27 -9 -33 -20z"/>
<path d="M1495 3550 c-3 -5 0 -10 7 -11 7 0 30 -2 51 -4 20 -2 37 0 37 5 0 4
-15 7 -32 6 -18 -1 -38 2 -45 7 -6 4 -14 3 -18 -3z"/>
<path d="M1680 3531 c0 -15 52 -23 64 -10 8 9 6 10 -11 6 -13 -3 -26 -1 -29 4
-7 12 -24 12 -24 0z"/>
<path d="M1950 3530 c0 -5 6 -10 13 -11 6 0 31 -2 55 -5 26 -2 41 0 37 6 -3 5
-21 8 -41 6 -19 -1 -37 1 -40 6 -7 11 -24 10 -24 -2z"/>
<path d="M2053 3496 c-13 -6 -23 -14 -23 -18 0 -5 -7 -8 -15 -8 -8 0 -15 -4
-15 -10 0 -5 7 -10 15 -10 8 0 15 5 15 11 0 6 7 9 15 5 9 -3 15 0 15 9 0 23
20 18 30 -7 10 -26 13 -14 4 20 -7 24 -9 25 -41 8z"/>
<path d="M1435 3490 c-3 -5 -3 -10 1 -10 3 0 -2 -12 -12 -27 -26 -40 -27 -102
-1 -76 4 3 2 12 -4 20 -8 9 -8 13 -1 13 6 0 9 8 6 18 -3 9 1 6 9 -7 8 -14 17
-19 21 -13 3 6 0 13 -6 15 -10 4 -10 6 0 6 6 1 12 6 12 12 0 6 -8 8 -17 5 -16
-5 -16 -5 -2 6 9 7 14 19 11 27 -2 8 0 11 5 8 5 -3 15 -2 23 4 11 6 8 9 -12 9
-15 0 -30 -4 -33 -10z"/>
<path d="M1500 3490 c0 -5 8 -10 18 -10 13 0 14 -2 3 -9 -7 -5 -23 -7 -35 -5
-20 4 -20 4 -1 -5 14 -6 27 -4 43 6 13 8 29 12 36 10 7 -3 19 -1 27 4 9 5 1 7
-24 5 -21 -1 -40 1 -43 6 -7 11 -24 10 -24 -2z"/>
<path d="M1730 3461 c0 -4 16 -8 35 -9 19 -1 35 3 35 7 0 5 -16 9 -35 9 -19 0
-35 -3 -35 -7z"/>
<path d="M1696 3435 c-3 -8 -12 -15 -21 -15 -8 0 -15 -4 -15 -10 0 -5 4 -10
10 -10 12 0 50 32 50 42 0 14 -18 9 -24 -7z"/>
<path d="M1715 3415 c-11 -13 -26 -24 -32 -25 -7 0 -13 -5 -13 -11 0 -7 10 -5
26 6 38 24 66 55 52 55 -7 0 -22 -11 -33 -25z"/>
<path d="M1894 3416 c-3 -9 -12 -16 -20 -16 -8 0 -14 -4 -14 -10 0 -16 18 -12
40 10 11 11 15 22 10 25 -6 4 -13 -1 -16 -9z"/>
<path d="M1461 3391 c-17 -13 -19 -18 -7 -18 8 0 18 7 21 14 3 10 14 13 35 8
17 -4 30 -2 30 3 0 16 -55 11 -79 -7z"/>
<path d="M2040 3401 c0 -6 -8 -11 -17 -11 -16 -1 -16 -2 -2 -10 8 -5 24 -36
34 -69 10 -33 22 -58 27 -55 5 4 5 11 0 17 -19 25 -40 105 -30 115 6 6 6 12
-1 16 -6 4 -11 2 -11 -3z"/>
<path d="M1710 3380 c0 -5 6 -10 13 -11 6 0 29 -2 50 -4 20 -2 37 0 37 5 0 5
-16 8 -36 6 -19 -1 -37 1 -40 6 -7 11 -24 10 -24 -2z"/>
<path d="M2062 3370 c0 -15 26 -90 27 -79 1 4 8 23 17 44 12 28 12 36 2 33 -7
-3 -14 -11 -14 -19 -3 -32 -6 -32 -19 1 -7 19 -13 28 -13 20z"/>
<path d="M1810 3349 c-19 -14 -21 -19 -9 -19 9 0 20 7 23 16 4 11 13 14 31 10
49 -12 127 -17 120 -7 -3 6 -21 9 -41 7 -19 -1 -37 1 -39 4 -9 14 -62 8 -85
-11z"/>
<path d="M1450 3350 c0 -5 8 -10 17 -10 28 0 6 -12 -27 -14 -17 -1 -33 1 -36
6 -11 17 -24 7 -22 -17 1 -14 6 -25 11 -25 5 0 7 7 3 15 -4 12 3 14 34 11 26
-3 43 1 51 11 8 8 21 12 35 9 13 -4 25 -2 29 4 3 5 -9 8 -30 6 -20 -1 -38 1
-41 6 -7 11 -24 10 -24 -2z"/>
<path d="M2025 3337 c16 -59 18 -70 7 -63 -8 5 -10 1 -5 -10 6 -16 7 -16 16 2
6 14 3 31 -7 55 -9 19 -14 26 -11 16z"/>
<path d="M1973 3326 c-13 -6 -23 -14 -23 -18 0 -5 -7 -8 -15 -8 -17 0 -20 -16
-5 -25 6 -3 13 1 16 10 4 9 13 14 20 11 8 -3 14 1 14 9 0 20 17 19 30 -2 11
-17 11 -17 6 0 -3 10 -6 23 -6 28 0 11 -8 10 -37 -5z"/>
<path d="M1990 3288 c0 -10 -3 -17 -7 -16 -15 4 -53 -23 -47 -33 3 -6 11 -4
18 6 6 9 21 17 34 18 24 1 26 5 12 27 -8 13 -10 12 -10 -2z"/>
<path d="M1518 3279 c34 -13 122 -20 122 -9 0 5 -16 8 -36 6 -19 -1 -37 1 -39
4 -2 4 -19 7 -37 8 -29 0 -30 -1 -10 -9z"/>
<path d="M1705 3268 c-14 -14 -16 -19 -5 -16 8 2 20 9 26 17 6 8 18 12 26 9 8
-4 20 -3 27 1 7 5 -2 8 -21 9 -20 0 -41 -7 -53 -20z"/>
<path d="M1990 3246 c0 -2 7 -23 15 -47 9 -24 13 -49 10 -57 -3 -8 0 -10 7 -6
8 5 9 0 5 -17 -6 -23 -5 -23 8 -5 8 11 15 27 15 35 1 9 7 33 14 54 8 20 10 37
5 37 -4 0 -14 -21 -22 -47 l-13 -48 -18 53 c-15 43 -26 65 -26 48z"/>
<path d="M1286 3191 c-9 -24 -16 -45 -14 -46 9 -9 33 -8 35 0 0 6 -3 9 -7 8
-5 -2 -4 11 1 27 17 48 4 58 -15 11z"/>
<path d="M1555 3220 c-5 -9 15 -15 38 -11 5 1 23 -3 42 -8 20 -5 38 -5 46 1
11 8 10 9 -3 4 -10 -3 -20 -1 -23 4 -3 4 -20 7 -38 6 -17 -1 -37 2 -44 7 -6 4
-14 3 -18 -3z"/>
<path d="M1363 3200 c4 -16 1 -18 -24 -13 -19 3 -29 1 -29 -6 0 -7 5 -9 10 -6
6 4 17 2 24 -4 9 -8 18 -7 32 4 11 8 14 15 7 15 -7 0 -13 5 -13 11 0 5 5 7 10
4 6 -3 10 -1 10 4 0 6 -7 11 -16 11 -11 0 -15 -6 -11 -20z"/>
<path d="M1935 3210 c-4 -6 -10 -8 -15 -5 -4 3 -10 -2 -14 -10 -3 -8 -11 -15
-18 -15 -7 0 -24 -9 -38 -20 -20 -16 -22 -20 -7 -20 9 0 17 5 17 10 0 6 9 10
20 10 11 0 20 5 20 10 0 6 7 10 15 10 8 0 15 5 15 10 0 6 7 10 15 10 8 0 15
-6 15 -14 0 -8 4 -17 10 -21 5 -3 5 7 -1 25 -11 31 -23 38 -34 20z"/>
<path d="M1401 3205 c13 -12 78 -21 90 -13 11 8 10 9 -3 4 -10 -3 -20 -2 -22
3 -3 4 -19 8 -37 9 -17 0 -29 -1 -28 -3z"/>
<path d="M1602 3147 c-9 -10 -3 -12 24 -12 19 1 37 -1 39 -5 2 -3 22 -5 44 -4
23 1 41 -1 41 -5 0 -3 15 -6 33 -6 39 1 73 -19 82 -48 7 -20 8 -20 12 -3 3 10
0 22 -7 26 -6 4 -10 13 -8 20 2 9 -10 14 -37 16 -22 1 -40 3 -40 4 0 1 -18 4
-40 5 -22 2 -40 4 -40 5 0 1 -16 3 -35 4 -20 1 -41 5 -47 9 -6 4 -15 1 -21 -6z"/>
<path d="M1260 3088 c-7 -24 -16 -56 -21 -72 -5 -16 -6 -27 -3 -23 4 3 15 2
25 -4 15 -7 19 -6 19 5 0 7 -7 17 -16 20 -21 8 -8 25 15 19 10 -3 22 0 26 7 4
7 1 11 -6 9 -25 -3 -39 1 -39 11 0 5 7 7 15 4 12 -5 15 2 15 30 0 49 -14 45
-30 -6z"/>
<path d="M1490 3112 c0 -14 2 -14 9 -3 7 11 13 12 23 5 7 -6 28 -10 46 -8 17
1 32 -1 32 -5 0 -4 18 -6 40 -5 22 1 40 -1 40 -5 0 -9 57 -8 66 2 4 4 -4 7
-17 8 -13 0 -33 2 -44 5 -11 2 -43 6 -71 8 -29 2 -56 5 -60 8 -5 2 -21 5 -36
6 -21 1 -28 -3 -28 -16z"/>
<path d="M1420 3090 c0 -5 6 -7 14 -4 8 3 17 1 20 -5 4 -6 13 -8 21 -5 8 4 13
9 10 14 -6 10 -65 10 -65 0z"/>
<path d="M1766 3093 c-13 -13 -5 -19 29 -20 19 -1 35 3 35 9 0 5 -6 8 -12 5
-7 -2 -20 -1 -29 4 -9 5 -19 5 -23 2z"/>
<path d="M1500 3080 c0 -6 5 -8 10 -5 6 3 16 3 23 -2 6 -4 32 -8 57 -8 25 0
50 -4 57 -8 6 -4 18 -4 27 -1 9 3 16 1 16 -5 0 -6 5 -11 10 -11 15 0 12 27 -2
27 -7 0 -33 3 -58 6 -128 17 -140 17 -140 7z"/>
<path d="M2010 3061 c0 -16 -7 -36 -15 -44 -8 -8 -12 -17 -9 -20 3 -3 1 -14
-4 -24 -6 -10 -12 -31 -15 -48 -12 -73 -18 -86 -35 -73 -14 12 -14 11 -1 -9 7
-12 16 -19 20 -15 4 6 47 144 75 245 3 9 1 17 -5 17 -6 0 -11 -13 -11 -29z"/>
<path d="M1470 3048 c0 -10 10 -13 32 -12 18 1 38 -2 44 -7 8 -6 14 -5 17 5 4
9 0 14 -11 14 -9 -1 -32 2 -49 6 -25 6 -33 4 -33 -6z"/>
<path d="M1725 3049 c4 -6 14 -8 23 -4 8 3 18 1 22 -5 4 -6 15 -7 26 -3 17 6
17 8 -6 14 -40 11 -72 10 -65 -2z"/>
<path d="M1902 3036 c13 -24 34 -46 43 -46 4 0 -3 12 -14 27 -12 14 -19 29
-16 32 4 3 11 -1 16 -9 9 -13 10 -13 6 0 -2 8 -13 16 -25 16 -19 1 -20 -1 -10
-20z"/>
<path d="M1660 3021 c0 -5 16 -8 35 -7 20 2 38 0 40 -4 3 -4 19 -7 37 -6 18 2
38 -1 44 -6 7 -5 18 -7 25 -6 8 2 13 -3 11 -10 -1 -8 2 -11 7 -7 16 10 0 35
-23 36 -11 0 -30 2 -41 4 -89 13 -135 15 -135 6z"/>
<path d="M1440 3012 c0 -4 8 -8 18 -9 9 -1 34 -2 55 -4 21 -1 40 -7 44 -12 3
-5 9 -4 13 4 7 10 12 10 23 1 7 -7 17 -9 20 -5 4 3 13 1 21 -6 11 -9 15 -9 18
1 4 10 8 11 20 1 8 -7 18 -10 21 -6 4 3 13 1 21 -6 11 -9 15 -8 19 3 4 9 0 15
-11 14 -9 0 -39 3 -67 7 -93 12 -110 14 -162 20 -29 3 -53 2 -53 -3z"/>
<path d="M1330 2991 c0 -16 18 -22 23 -9 4 9 8 10 14 2 9 -12 57 -13 69 -1 4
4 1 7 -7 8 -8 0 -33 2 -56 5 -25 3 -43 1 -43 -5z"/>
<path d="M1226 2954 c-4 -15 -4 -29 -1 -32 3 -3 8 4 12 16 3 12 9 19 14 16 5
-3 9 2 9 10 0 26 -27 18 -34 -10z"/>
<path d="M1750 2969 c0 -6 8 -9 18 -8 9 1 19 0 22 -1 19 -7 50 -5 47 4 -5 14
-87 19 -87 5z"/>
<path d="M1299 2956 c10 -12 56 -14 68 -3 6 7 0 9 -49 12 -20 1 -25 -1 -19 -9z"/>
<path d="M1385 2951 c-6 -11 1 -15 19 -12 4 1 14 -3 21 -9 9 -8 14 -6 19 5 3
9 0 15 -8 15 -8 0 -21 3 -29 6 -8 3 -18 1 -22 -5z"/>
<path d="M1690 2938 c0 -5 5 -6 10 -3 6 3 16 3 22 -1 19 -12 51 -13 68 -2 11
7 10 8 -7 5 -13 -3 -23 -2 -23 2 0 4 -16 7 -35 8 -19 1 -35 -3 -35 -9z"/>
<path d="M1280 2919 c0 -4 6 -6 14 -3 8 3 17 1 20 -5 4 -6 13 -8 21 -4 27 10
16 21 -20 21 -19 0 -35 -4 -35 -9z"/>
<path d="M1360 2905 c0 -8 -7 -15 -15 -15 -8 0 -15 -7 -15 -15 0 -20 28 -8 35
16 4 11 11 17 16 14 5 -4 9 -1 9 4 0 6 -7 11 -15 11 -8 0 -15 -7 -15 -15z"/>
<path d="M1222 2890 c10 -16 10 -22 0 -32 -11 -11 -12 -10 -7 3 4 12 -3 16
-34 17 -32 2 -43 -2 -59 -23 -45 -57 -36 -175 13 -192 23 -8 24 -9 10 -36 -8
-15 -44 -119 -81 -230 -36 -111 -70 -211 -74 -222 -22 -52 -41 -126 -35 -135
3 -5 18 -10 33 -11 20 0 22 -2 10 -7 -24 -10 101 -118 134 -115 13 1 18 0 12
-3 -24 -11 28 -144 56 -144 5 0 7 7 3 15 -5 13 -2 14 21 4 14 -7 26 -16 26
-20 0 -4 8 -8 18 -8 18 -1 67 -8 67 -11 0 -1 10 -3 23 -6 41 -7 23 5 -30 21
-37 11 -69 31 -107 65 -29 28 -47 50 -39 50 35 0 233 -41 242 -50 6 -6 34 -10
63 -10 29 0 53 -2 53 -4 0 -1 -5 -17 -11 -34 -9 -28 -15 -31 -57 -34 -52 -3
-68 -23 -23 -30 18 -3 28 0 24 6 -4 6 1 7 13 2 31 -12 39 -12 36 2 -1 7 11 15
27 18 18 4 33 16 40 31 10 22 16 24 44 18 18 -3 48 -9 67 -12 l35 -5 27 84
c40 124 41 128 27 144 -10 12 -9 13 3 9 15 -6 23 16 89 242 27 95 28 105 15
135 l-15 33 3 -38 c2 -21 -1 -40 -5 -43 -5 -3 -9 -18 -9 -35 0 -38 -11 -37
-35 4 -14 24 -15 29 -3 19 13 -11 16 -9 20 12 3 14 1 23 -3 20 -15 -9 -10 27
6 42 13 14 13 18 0 37 -9 12 -20 22 -25 22 -12 0 -13 5 -6 25 3 8 17 56 32
105 15 50 29 96 32 104 3 9 1 12 -5 8 -6 -4 -14 -1 -17 5 -3 7 -4 1 -1 -14 3
-16 2 -28 -2 -28 -5 0 -9 -14 -9 -32 -1 -18 -6 -34 -13 -36 -6 -2 -9 -8 -5
-13 3 -5 2 -14 -2 -20 -4 -8 -9 -7 -15 2 -7 11 -9 11 -9 -1 0 -9 6 -22 13 -29
10 -10 8 -11 -7 -5 -16 6 -17 4 -8 -13 17 -30 2 -36 -26 -11 -14 13 -22 18
-19 12 4 -6 -1 -30 -10 -53 -15 -39 -15 -42 3 -57 19 -15 19 -16 0 -9 -19 6
-19 5 -1 -15 22 -24 26 -25 19 -5 -4 8 -1 15 6 15 6 0 8 5 5 10 -3 6 -1 10 4
10 6 0 11 10 11 23 0 16 -3 18 -9 8 -6 -9 -8 -5 -8 13 0 35 7 33 36 -9 23 -34
23 -73 0 -59 -8 5 -10 -6 -6 -39 3 -25 3 -48 0 -51 -3 -3 -21 15 -40 39 -19
25 -38 45 -42 45 -11 0 -21 -25 -21 -52 0 -20 -1 -20 -18 -5 -10 10 -27 17
-38 17 -10 1 -30 7 -44 15 -31 18 -65 20 -35 2 11 -6 22 -12 25 -13 28 -6 62
-27 54 -32 -6 -4 -17 -24 -23 -44 -8 -23 -19 -38 -29 -39 -11 0 -12 -2 -4 -6
6 -2 12 -9 12 -15 0 -6 -7 -8 -15 -5 -17 7 -31 -11 -19 -23 5 -4 18 -11 30
-14 19 -6 23 1 44 74 22 76 32 92 45 71 4 -8 -40 -169 -50 -179 -2 -2 -12 1
-24 7 -12 6 -30 15 -41 21 -10 5 -21 6 -24 1 -8 -13 19 -32 51 -35 16 -2 29
-10 31 -20 4 -17 -8 -21 -23 -7 -16 14 -63 22 -70 12 -8 -14 10 -22 62 -27 25
-2 53 -10 61 -16 11 -9 10 -5 -3 15 -12 18 -15 31 -8 35 5 4 21 40 34 80 l24
73 30 -23 30 -23 -33 39 c-48 56 -28 59 24 4 24 -26 44 -45 44 -42 0 3 9 0 20
-6 11 -6 20 -18 20 -28 0 -13 -4 -12 -20 8 -11 14 -20 19 -20 12 0 -7 -4 -11
-9 -7 -11 6 -19 -44 -25 -150 -2 -38 -5 -72 -6 -75 -1 -3 -3 -12 -4 -20 0 -8
-7 -14 -15 -12 -12 3 -12 0 -2 -11 18 -22 -16 -142 -36 -125 -10 8 -17 8 -25
0 -9 -9 -8 -12 5 -12 9 0 17 -4 17 -9 0 -5 -9 -7 -20 -4 -22 6 -26 18 -9 29 7
4 -9 27 -41 59 -29 29 -47 55 -42 59 6 3 15 28 22 56 7 27 16 50 20 50 5 0 20
-15 34 -32 21 -28 27 -31 38 -19 7 8 8 11 2 8 -7 -4 -28 11 -48 33 -19 21 -38
35 -41 30 -3 -5 -23 -3 -46 5 -36 13 -40 13 -46 -3 -3 -9 -8 -20 -10 -24 -2
-5 0 -8 6 -8 5 0 11 7 13 15 2 10 7 12 18 5 12 -7 12 -12 2 -22 -6 -6 -12 -22
-12 -34 0 -16 -6 -21 -26 -21 -14 0 -31 -6 -37 -12 -8 -8 -3 -11 20 -11 17 0
36 -7 43 -15 7 -8 18 -15 24 -15 7 0 23 -11 36 -25 27 -29 20 -32 -16 -8 -14
9 -42 16 -65 15 -22 -1 -39 3 -39 9 0 14 -38 2 -73 -22 -25 -18 -33 -19 -84
-9 -31 7 -77 9 -102 6 -50 -6 -64 -1 -74 27 -4 11 -15 17 -26 15 -27 -4 -121
72 -115 93 5 17 -21 33 -37 23 -5 -3 -9 0 -9 5 0 6 4 11 9 11 5 0 19 33 31 73
13 39 38 117 57 172 19 55 36 107 38 115 2 8 17 53 32 100 28 82 30 85 58 83
22 -2 26 0 15 7 -8 5 -23 10 -32 10 -22 0 -22 3 -1 43 15 30 15 31 -1 18 -16
-13 -17 -11 -15 35 1 27 -1 63 -5 80 -9 39 11 57 53 51 30 -5 31 -4 31 29 0
24 -5 34 -15 34 -13 0 -13 -3 -3 -20z m539 -566 c13 -15 41 -37 62 -50 20 -13
37 -32 37 -42 -1 -15 -2 -15 -16 3 -8 11 -20 19 -25 18 -12 -4 -55 34 -81 70
-25 34 -9 35 23 1z m71 -156 c2 -7 -4 -29 -14 -48 -15 -27 -18 -29 -14 -10 3
14 6 35 6 48 0 24 15 30 22 10z m-231 -183 c-9 -30 -19 -55 -22 -55 -13 0 -18
31 -10 53 5 12 12 30 15 40 3 9 12 17 19 17 12 0 12 -9 -2 -55z m-30 -125 c19
0 29 -5 29 -15 0 -8 9 -15 20 -15 11 0 20 -4 20 -9 0 -22 -24 -21 -76 5 -49
24 -60 26 -87 16 -35 -13 -53 -7 -34 13 18 18 47 23 75 13 13 -4 37 -8 53 -8z"/>
<path d="M1440 2897 c0 -9 11 -12 35 -11 19 2 37 0 39 -5 3 -4 20 -7 38 -6 18
1 36 -2 39 -7 3 -5 11 -3 17 5 10 11 6 14 -21 16 -35 2 -82 8 -82 11 0 1 -15
3 -32 6 -23 2 -33 0 -33 -9z"/>
<path d="M1677 2873 c-14 -13 -6 -24 13 -18 11 3 20 2 20 -3 0 -8 24 -9 74 -3
23 3 -8 15 -39 16 -18 0 -37 4 -41 8 -9 9 -19 9 -27 0z"/>
<path d="M1450 2858 c0 -6 -8 -17 -17 -24 -10 -7 -15 -15 -12 -19 7 -7 35 18
41 37 4 10 8 10 20 1 8 -7 18 -10 21 -6 4 3 13 0 22 -7 12 -10 15 -10 15 0 0
9 4 9 13 2 6 -5 27 -9 45 -7 18 1 35 -2 38 -7 3 -5 14 -6 25 -3 10 4 19 3 19
-2 0 -10 56 -11 66 0 4 4 -4 7 -17 8 -13 0 -33 2 -44 4 -17 4 -98 14 -145 19
-9 1 -20 4 -25 7 -19 10 -65 9 -65 -3z"/>
<path d="M1196 2813 c-4 -9 -4 -18 -1 -21 3 -3 5 0 5 5 0 6 11 10 24 9 14 -2
27 2 30 9 3 8 -6 12 -24 13 -17 0 -31 -6 -34 -15z"/>
<path d="M1460 2815 c0 -8 -7 -15 -15 -15 -8 0 -15 -7 -15 -15 0 -18 26 -10
34 11 6 15 53 16 74 1 8 -6 12 -5 12 2 0 9 5 9 20 1 11 -6 20 -8 20 -5 0 3 9
1 19 -4 14 -8 20 -7 24 4 4 8 -1 14 -11 13 -17 0 -97 10 -97 12 0 1 -15 3 -32
6 -25 3 -33 0 -33 -11z"/>
<path d="M1858 2821 c8 -5 11 -18 7 -37 -5 -29 -5 -29 6 -4 10 21 13 22 16 7
3 -9 9 -14 15 -11 7 4 8 2 4 -5 -4 -6 -11 -9 -15 -7 -4 3 -8 -8 -8 -24 0 -26
2 -27 13 -12 12 15 13 15 14 -7 0 -20 2 -21 15 -11 14 11 14 14 0 24 -13 9
-14 17 -5 41 12 31 7 55 -10 55 -8 0 -8 -6 0 -20 6 -11 7 -20 3 -20 -5 0 -16
9 -26 20 -9 11 -22 20 -29 20 -10 0 -10 -2 0 -9z"/>
<path d="M1275 2809 c-4 -5 -5 -9 -3 -10 38 -8 69 -7 66 2 -5 15 -56 21 -63 8z"/>
<path d="M1650 2789 c0 -6 8 -8 19 -4 11 3 22 2 25 -3 3 -5 20 -8 38 -7 18 1
44 -5 57 -13 22 -15 23 -14 20 3 -3 15 -13 20 -39 20 -20 1 -40 3 -45 6 -19
10 -75 9 -75 -2z"/>
<path d="M1250 2775 c0 -8 6 -12 14 -9 8 3 17 0 21 -6 5 -8 11 -8 21 1 8 6 14
7 14 2 0 -5 16 -9 35 -10 19 -1 35 4 35 9 0 6 -7 8 -15 5 -8 -4 -17 -2 -20 3
-3 5 -21 8 -41 6 -19 -1 -37 1 -40 6 -8 13 -24 9 -24 -7z"/>
<path d="M1470 2780 c0 -5 6 -7 14 -4 8 3 17 1 20 -5 4 -6 13 -8 20 -5 8 3 17
0 21 -6 6 -9 9 -9 15 1 7 10 12 10 23 0 10 -8 17 -9 22 -1 3 5 -2 11 -12 12
-23 2 -47 5 -53 8 -23 7 -70 8 -70 0z"/>
<path d="M1626 2761 c-4 -5 -2 -12 4 -16 5 -3 10 -1 10 6 0 9 4 9 15 -1 8 -6
19 -9 25 -5 6 4 16 2 23 -4 8 -6 18 -6 27 -1 8 6 13 10 10 11 -3 0 -14 2 -25
3 -11 2 -34 6 -52 10 -18 4 -34 3 -37 -3z"/>
<path d="M2104 2752 c-18 -11 -44 -69 -43 -94 1 -20 2 -19 15 10 8 17 18 32
23 32 16 0 23 -38 11 -60 -6 -11 -9 -29 -5 -39 6 -20 -18 -46 -35 -36 -5 3
-10 2 -10 -4 0 -7 -7 -7 -23 0 -19 9 -23 18 -24 67 0 41 2 51 8 37 9 -20 9
-20 6 0 -5 39 -107 29 -107 -11 0 -7 10 -14 22 -16 20 -3 21 -4 5 -20 -11 -10
-13 -18 -6 -20 8 -3 8 -25 -1 -78 -7 -41 -12 -88 -11 -104 3 -54 -71 -674 -85
-709 -8 -21 -60 -50 -74 -42 -6 3 -10 1 -10 -4 0 -13 -37 -15 -44 -2 -4 5 0
12 6 14 7 3 -3 6 -23 6 -21 1 -52 12 -73 26 -32 22 -91 37 -73 18 4 -3 -1 -12
-11 -20 -15 -13 -12 -14 26 -10 29 4 40 2 35 -6 -11 -18 -14 -67 -3 -67 6 0
10 8 10 17 0 13 3 14 12 5 7 -7 19 -12 27 -12 14 0 14 2 1 10 -9 5 13 7 60 4
89 -6 131 13 148 68 11 33 58 405 88 688 24 233 25 240 35 234 13 -8 11 20 -3
34 -9 9 -8 12 6 12 14 0 17 -7 15 -32 -2 -18 0 -52 5 -76 6 -35 10 -41 22 -31
8 7 14 7 14 1 0 -12 37 -23 55 -15 22 8 49 92 49 150 0 54 -18 89 -40 75z"/>
<path d="M1480 2742 c0 -8 7 -10 48 -13 9 -1 22 -6 28 -10 7 -6 16 -3 25 7 11
14 10 16 -6 14 -11 -1 -22 -1 -25 0 -20 7 -70 8 -70 2z"/>
<path d="M1300 2732 c0 -5 6 -9 13 -10 27 -4 62 -10 62 -12 0 -8 56 -7 60 1 4
5 -4 10 -17 11 -35 2 -42 3 -53 9 -16 9 -65 9 -65 1z"/>
<path d="M1760 2701 c0 -6 5 -13 10 -16 6 -4 7 -12 4 -18 -4 -7 1 -5 11 5 9 9
14 21 11 27 -9 13 -36 15 -36 2z"/>
<path d="M1310 2687 c0 -9 11 -12 32 -11 18 1 37 0 42 -4 17 -10 55 -11 61 -1
4 5 -4 10 -17 11 -35 2 -42 3 -53 9 -21 11 -65 9 -65 -4z"/>
<path d="M1610 2680 c0 -6 8 -11 18 -11 9 -1 31 -3 49 -5 18 -2 35 1 39 7 3 6
-1 10 -12 9 -11 -1 -21 -1 -24 0 -22 8 -70 8 -70 0z"/>
<path d="M1900 2664 c0 -14 -4 -23 -10 -19 -5 3 -10 -1 -10 -9 0 -9 7 -16 15
-16 10 0 15 11 15 35 0 19 -2 35 -5 35 -3 0 -5 -12 -5 -26z"/>
<path d="M1240 2659 c0 -5 6 -9 13 -9 6 0 22 -3 35 -6 16 -5 22 -2 22 9 0 10
-10 15 -35 15 -19 0 -35 -4 -35 -9z"/>
<path d="M1320 2652 c0 -5 20 -13 45 -19 29 -7 45 -7 45 0 0 5 6 4 14 -2 10
-8 16 -9 21 -1 3 5 -2 11 -12 12 -18 1 -33 4 -43 8 -20 7 -70 8 -70 2z"/>
<path d="M1450 2589 c0 -5 14 -9 30 -9 17 0 30 4 30 8 0 5 -13 9 -30 10 -16 0
-30 -4 -30 -9z"/>
<path d="M1526 2581 c-4 -5 2 -9 11 -9 10 1 38 -2 62 -6 27 -5 41 -5 38 1 -4
6 -20 10 -37 11 -16 0 -39 3 -49 7 -11 3 -22 1 -25 -4z"/>
<path d="M1694 2558 c-4 -7 10 -12 19 -6 1 1 12 -4 25 -11 18 -10 22 -9 22 3
0 15 -58 28 -66 14z"/>
<path d="M1699 2512 c7 -14 6 -25 -4 -39 -15 -21 -11 -33 10 -33 18 0 38 72
22 82 -23 15 -38 9 -28 -10z"/>
<path d="M1975 2495 c1 -22 -1 -62 -6 -90 -7 -43 -27 -232 -45 -415 -11 -121
-36 -285 -46 -304 -10 -21 -10 -21 12 0 18 18 26 45 41 148 30 208 72 658 61
665 -5 3 -12 13 -15 21 -3 8 -4 -3 -2 -25z"/>
<path d="M1640 2431 c0 -13 36 -32 67 -36 24 -2 24 -2 6 15 -21 21 -73 35 -73
21z"/>
<path d="M1309 2373 c-15 -7 -32 -20 -39 -28 -26 -31 -15 -125 14 -125 5 0 2
8 -7 18 -19 21 -23 42 -5 24 7 -7 19 -12 27 -12 11 0 10 4 -5 16 -17 14 -17
15 -1 10 11 -3 16 -2 12 4 -3 6 -15 10 -26 10 -11 0 -17 5 -14 10 4 6 11 8 16
5 5 -3 6 2 3 12 -5 16 -4 16 10 -1 12 -15 16 -16 16 -5 0 12 2 12 10 -1 6 -9
10 -11 10 -3 0 7 7 10 15 7 8 -4 15 -2 15 4 0 5 -7 12 -15 16 -8 3 -15 2 -15
-3 0 -13 -29 -9 -34 5 -8 22 41 27 87 9 31 -13 18 11 -15 26 -28 13 -37 13
-59 2z"/>
<path d="M1630 2382 c0 -12 59 -31 65 -22 6 10 -26 30 -49 30 -9 0 -16 -4 -16
-8z"/>
<path d="M1390 2310 c0 -13 -5 -18 -15 -14 -10 4 -15 0 -15 -15 0 -12 -5 -21
-11 -21 -5 0 -7 4 -4 10 3 6 -1 7 -9 4 -23 -9 -20 -24 4 -24 29 0 25 -17 -7
-28 -24 -9 -25 -11 -6 -11 32 -1 85 47 78 70 -4 11 -2 19 4 19 6 0 8 7 5 15
-9 22 -24 18 -24 -5z"/>
<path d="M1160 2197 c3 -3 29 -10 58 -15 30 -5 50 -6 45 -2 -9 8 -111 25 -103
17z"/>
<path d="M1201 2157 c-8 -10 -7 -14 2 -14 6 -1 36 -6 66 -12 29 -6 61 -11 70
-10 17 1 -25 12 -93 24 -29 5 -36 9 -25 16 8 5 9 9 3 9 -6 0 -17 -6 -23 -13z"/>
<path d="M1105 2145 c28 -7 52 -11 54 -9 2 2 -2 4 -10 4 -10 0 -11 2 -2 8 7 4
-11 8 -40 9 l-52 1 50 -13z"/>
<path d="M1454 2088 c-4 -6 -3 -8 4 -4 6 3 13 2 17 -4 10 -16 35 -12 29 5 -7
18 -40 20 -50 3z"/>
<path d="M1065 2050 c-8 -13 -2 -15 134 -41 105 -21 127 -30 166 -66 8 -7 20
-13 28 -13 9 0 18 -6 20 -12 4 -10 6 -10 6 0 1 6 8 12 16 12 8 0 15 2 15 4 0
2 3 11 6 19 4 11 -4 16 -28 20 -18 2 -100 19 -182 36 -82 17 -150 31 -153 31
-2 0 -1 5 2 10 3 6 -1 10 -9 10 -8 0 -18 -5 -21 -10z"/>
<path d="M1275 1728 c22 -6 43 -16 47 -22 5 -6 8 -7 8 -1 0 6 9 -1 19 -14 13
-17 28 -24 50 -23 18 0 50 -6 73 -14 47 -16 98 -19 98 -4 0 6 -8 10 -19 10
-10 0 -24 7 -31 15 -9 11 -33 15 -86 15 -54 0 -74 4 -74 13 0 13 -75 38 -108
36 -9 -1 1 -6 23 -11z"/>
<path d="M1825 1648 c-16 -6 -50 -14 -75 -18 l-45 -7 56 -2 c43 -1 62 4 80 19
27 22 26 22 -16 8z"/>
<path d="M1359 1627 c-15 -32 -6 -57 21 -57 11 0 20 3 21 8 0 4 2 15 4 24 2 9
-5 24 -16 34 -17 16 -19 15 -30 -9z"/>
<path d="M1456 1608 c-8 -18 -1 -38 14 -38 4 0 11 7 14 16 3 8 2 12 -3 9 -5
-3 -11 3 -14 12 -4 17 -4 17 -11 1z"/>
<path d="M1387 1540 c-21 -4 -43 -12 -48 -17 -16 -16 20 -46 48 -40 12 2 23 0
23 -5 0 -10 205 -4 233 7 22 9 22 32 -1 44 -10 5 -56 10 -103 10 -48 0 -93 2
-100 5 -8 2 -31 0 -52 -4z"/>
<path d="M1330 1421 c0 -30 156 -59 223 -42 58 14 90 14 81 0 -10 -17 -6 -91
6 -103 8 -8 11 6 9 56 -1 38 1 71 4 75 18 17 4 20 -25 5 -48 -24 -221 -24
-265 1 -18 10 -33 13 -33 8z"/>
<path d="M1338 1273 l-3 -98 -175 -6 c-96 -4 -207 -7 -246 -8 l-71 -1 -7 -141
c-8 -161 -2 -182 69 -231 42 -28 156 -73 214 -83 19 -3 41 -10 51 -15 18 -10
229 -26 220 -17 -3 2 -48 10 -100 16 -128 14 -237 43 -327 87 -97 46 -117 75
-108 159 4 33 7 87 8 120 1 33 5 65 10 72 5 8 45 12 115 14 180 3 334 1 339
-5 3 -3 6 -16 6 -30 0 -16 9 -31 25 -42 19 -13 22 -18 11 -25 -10 -6 -8 -9 9
-9 15 0 22 -6 22 -20 0 -11 5 -20 10 -20 6 0 10 7 10 15 0 18 8 18 39 1 19
-11 30 -11 62 0 21 8 45 11 54 8 8 -3 15 -1 15 4 0 6 8 19 18 28 16 17 16 17
-3 9 -11 -4 -55 -10 -97 -13 -65 -3 -85 -1 -123 18 -25 12 -45 26 -45 31 0 6
8 6 19 -1 11 -5 23 -10 28 -10 4 1 -4 8 -19 16 -22 12 -28 22 -28 49 0 24 5
35 15 35 10 0 15 -10 15 -31 0 -19 4 -28 11 -23 15 9 6 209 -11 229 -24 29
-29 15 -32 -82z"/>
<path d="M1679 1273 c-18 -5 -33 -69 -24 -106 6 -21 10 -22 125 -22 69 0 116
4 112 9 -3 5 2 7 11 3 9 -3 19 -2 21 2 7 11 -79 21 -181 21 -75 0 -83 2 -83
19 0 11 8 22 19 26 25 8 185 -11 301 -36 399 -84 526 -106 739 -124 91 -8 192
-18 224 -21 l58 -7 -3 32 -2 32 -61 -5 c-44 -4 -53 -3 -35 4 18 7 5 9 -50 6
-41 -2 -66 0 -56 4 11 3 -54 12 -145 19 -182 14 -312 34 -546 85 -202 44 -386
70 -424 59z"/>
<path d="M2040 1137 c0 -15 7 -44 15 -64 8 -19 17 -47 20 -61 2 -14 10 -29 16
-33 7 -4 9 -14 6 -23 -4 -9 -2 -16 4 -16 6 0 9 -6 6 -14 -3 -8 -2 -16 4 -18
19 -6 20 -60 2 -80 -60 -67 -319 -147 -478 -148 -22 0 -35 -4 -28 -8 18 -12
215 1 247 16 11 5 57 22 101 37 44 15 91 34 103 42 47 30 101 23 74 -10 -6 -7
-9 -35 -8 -62 2 -28 -2 -59 -8 -70 -5 -11 -10 -23 -11 -28 0 -8 -86 -67 -98
-67 -5 0 -23 -6 -40 -14 -39 -17 -100 -37 -130 -41 -12 -2 -60 -9 -107 -16
-122 -19 -413 -16 -515 6 -16 3 -61 12 -98 20 -115 24 -226 86 -256 142 l-20
38 -1 -32 c-1 -89 163 -172 412 -209 149 -22 440 -15 573 14 159 35 284 96
312 152 8 16 13 73 13 167 0 140 0 143 -41 256 -22 63 -47 123 -54 134 -13 17
-14 16 -15 -10z"/>
<path d="M2135 1081 c-19 -8 229 -3 250 4 6 2 -44 3 -110 4 -66 0 -129 -4
-140 -8z"/>
<path d="M1382 979 c4 -33 42 -49 119 -49 51 0 72 5 90 19 31 25 20 36 -17 16
-53 -27 -140 -17 -178 21 -17 16 -18 16 -14 -7z"/>
<path d="M1385 902 c9 -35 4 -32 69 -38 36 -3 56 -1 56 5 0 6 7 11 15 11 8 0
15 -5 15 -11 0 -7 10 -9 27 -4 30 7 43 21 43 46 0 13 -7 15 -32 11 -43 -7
-124 -7 -166 1 -33 6 -34 5 -27 -21z m177 -6 c-18 -10 -120 -8 -139 2 -6 4 26
7 72 7 56 0 78 -3 67 -9z"/>
<path d="M1390 852 c0 -15 18 -24 51 -28 37 -5 47 12 11 19 -15 3 -35 9 -44
12 -10 4 -18 3 -18 -3z"/>
<path d="M1563 847 c-18 -5 -33 -14 -33 -18 0 -5 6 -6 14 -3 8 3 17 0 21 -6 5
-8 12 -4 22 10 19 27 16 29 -24 17z"/>
</g>
</svg>
