<?xml version="1.0" standalone="no"?>
<!DOCTYPE svg PUBLIC "-//W3C//DTD SVG 20010904//EN"
 "http://www.w3.org/TR/2001/REC-SVG-20010904/DTD/svg10.dtd">
<svg version="1.0" xmlns="http://www.w3.org/2000/svg"
 width="300.000000pt" height="300.000000pt" viewBox="0 0 300.000000 300.000000"
 preserveAspectRatio="xMidYMid meet">
<metadata>
Created by potrace 1.10, written by Peter Selinger 2001-2011
</metadata>
<g transform="translate(0.000000,300.000000) scale(0.100000,-0.100000)"
fill="#000000" stroke="none">
<path d="M1271 2965 c-79 -49 -138 -112 -174 -185 -30 -60 -32 -72 -32 -165 0
-95 2 -105 34 -168 39 -77 119 -159 186 -188 24 -11 47 -23 49 -28 3 -5 -1
-23 -10 -40 -12 -24 -14 -49 -10 -99 7 -80 21 -789 21 -1052 l0 -184 -87 -23
c-200 -51 -363 -174 -399 -301 -16 -58 -7 -167 20 -226 46 -106 117 -168 261
-229 168 -71 326 -93 449 -61 60 15 101 12 101 -7 0 -5 7 -9 16 -9 13 0 13 2
-2 18 -15 15 -40 17 -198 18 -153 0 -193 4 -261 22 -248 68 -374 196 -377 382
-1 51 4 78 22 116 55 113 205 213 388 257 l92 22 -6 275 c-15 666 -19 1037
-11 1062 5 14 15 29 23 32 8 3 14 14 14 26 0 15 -16 27 -65 49 -86 39 -157
108 -198 190 -29 59 -32 75 -32 151 1 70 5 95 26 140 45 97 141 177 252 212
67 20 177 24 228 6 62 -21 140 -80 175 -132 70 -106 84 -278 32 -381 -29 -57
-109 -136 -162 -162 -20 -9 -36 -23 -36 -30 0 -7 -7 -13 -16 -13 -20 0 -10
-39 16 -60 11 -8 22 -27 26 -43 3 -15 10 -30 15 -33 12 -7 11 -84 -1 -84 -7 0
-9 -141 -8 -407 1 -271 4 -371 8 -298 4 61 8 238 9 394 1 182 5 297 13 322 13
45 0 104 -34 152 -28 39 -14 66 55 105 103 58 166 155 174 267 12 167 -58 311
-194 398 -42 26 -46 27 -190 26 l-148 -1 -54 -33z"/>
<path d="M1481 2966 c-10 -11 -6 -17 20 -30 19 -10 37 -12 46 -7 12 6 10 10
-12 15 -18 5 -25 12 -21 21 7 19 -18 20 -33 1z"/>
<path d="M1381 2939 c-35 -14 -23 -18 29 -9 25 4 40 8 33 9 -6 0 -17 3 -25 5
-7 3 -24 0 -37 -5z"/>
<path d="M1428 2909 c-10 -5 -18 -15 -18 -21 0 -7 5 -6 15 2 9 8 15 8 15 2 0
-7 13 -9 35 -5 24 4 41 1 53 -10 9 -8 37 -20 62 -27 25 -7 50 -15 55 -20 6 -4
22 -10 38 -14 32 -8 70 -42 62 -56 -3 -5 -13 -7 -23 -4 -12 4 -11 0 6 -14 20
-18 31 -52 17 -52 -3 0 -32 13 -63 29 -31 17 -74 33 -94 36 -21 4 -35 11 -32
16 6 10 0 13 -64 29 -30 8 -42 16 -39 25 3 7 -3 15 -13 18 -13 3 -21 -3 -28
-22 -6 -14 -14 -35 -18 -46 -11 -29 -11 -32 -13 -60 -1 -19 -7 -25 -23 -26
-23 0 -23 0 -2 -9 16 -6 21 -15 18 -37 -2 -16 -1 -19 2 -8 4 11 12 27 19 35 7
8 15 31 18 50 10 69 27 117 27 76 0 -12 5 -16 14 -13 10 4 13 1 10 -8 -4 -10
9 -15 48 -20 29 -4 56 -5 59 -3 3 1 12 -2 20 -8 8 -6 28 -14 44 -18 33 -8 99
-46 92 -53 -3 -2 -20 2 -38 10 -49 21 -102 37 -106 33 -2 -2 -1 -10 3 -19 4
-11 15 -14 40 -11 20 2 47 -2 65 -11 16 -9 34 -13 40 -10 5 4 16 1 24 -5 13
-11 15 -6 15 34 0 25 -4 46 -10 46 -5 0 -7 7 -4 15 13 34 -60 135 -96 134 -10
0 -8 -4 5 -10 21 -10 50 -48 43 -55 -2 -2 -15 2 -28 9 -14 7 -47 19 -75 27
-27 7 -58 22 -68 32 -13 13 -27 17 -47 13 -17 -3 -30 -1 -30 5 0 13 -10 12
-32 -1z"/>
<path d="M1560 2911 c8 -5 31 -11 50 -14 l35 -6 -30 14 c-33 16 -81 21 -55 6z"/>
<path d="M1310 2893 c-19 -3 -39 -9 -45 -15 -7 -7 0 -9 24 -4 18 3 49 6 67 6
19 0 34 5 34 10 0 10 -14 10 -80 3z"/>
<path d="M1496 2848 c-9 -5 -16 -12 -16 -16 0 -9 72 -32 102 -32 13 -1 34 -7
48 -15 29 -16 54 -19 45 -6 -3 5 -30 17 -59 25 -30 9 -56 22 -59 30 -7 18 -40
26 -61 14z"/>
<path d="M1245 2834 l-50 -13 55 4 c30 3 77 5 103 5 30 0 46 4 42 10 -9 14
-90 11 -150 -6z"/>
<path d="M1219 2785 c-3 -2 -19 -5 -37 -7 -17 -1 -34 -9 -37 -16 -4 -11 1 -13
22 -8 16 4 67 9 116 13 48 3 87 10 87 14 0 9 -143 13 -151 4z"/>
<path d="M1420 2735 c0 -17 16 -20 25 -5 4 6 11 7 17 4 7 -4 3 -11 -8 -17 -16
-9 -12 -13 31 -28 28 -10 56 -18 63 -18 16 -1 11 22 -6 29 -8 3 -12 9 -10 14
3 9 -67 36 -94 36 -10 0 -18 -7 -18 -15z"/>
<path d="M1124 2696 c-22 -123 28 -232 134 -291 52 -29 52 -29 52 -12 0 8 -18
22 -40 32 -36 16 -72 45 -57 45 3 0 29 -5 57 -11 34 -7 48 -15 43 -22 -4 -7 1
-5 11 3 18 14 18 12 11 -40 -4 -30 -9 -57 -11 -59 -9 -9 -95 33 -135 66 l-44
37 33 -36 c19 -20 49 -44 68 -54 19 -10 34 -22 34 -26 0 -4 7 -4 17 -1 9 4 14
2 11 -3 -4 -5 26 -10 67 -12 44 -2 76 1 80 7 4 7 -11 11 -45 11 -48 0 -51 1
-45 21 4 13 2 25 -5 29 -8 5 -9 16 -5 30 6 18 9 20 16 9 9 -16 113 -16 132 -1
7 5 23 5 37 1 l25 -7 -27 -1 c-15 -1 -30 -5 -33 -11 -3 -5 -29 -10 -56 -10
-36 0 -49 -4 -46 -12 5 -16 65 -12 127 8 46 15 157 91 172 119 10 17 3 35 -13
35 -6 0 -8 -4 -5 -9 3 -4 -3 -16 -13 -25 -17 -16 -22 -16 -48 -3 -15 8 -41 17
-58 20 l-30 6 33 -15 c18 -8 30 -19 27 -24 -3 -6 3 -10 14 -10 30 0 26 -17 -8
-34 -21 -11 -37 -13 -60 -6 -17 5 -31 5 -31 0 0 -4 -17 -4 -37 1 -66 17 -113
19 -113 7 0 -6 -8 -4 -18 5 -11 10 -35 17 -60 17 -23 0 -47 7 -56 15 -8 8 -24
15 -36 15 -18 0 -45 37 -34 49 1 2 29 0 62 -4 47 -5 59 -10 58 -23 -1 -13 8
-17 34 -17 29 0 36 4 38 23 3 20 -1 22 -50 23 -29 1 -57 1 -61 0 -4 -1 -10 6
-13 14 -4 10 -19 15 -44 15 -25 0 -40 5 -44 16 -9 23 -8 24 25 24 17 0 37 7
45 15 10 10 36 15 76 15 34 0 58 3 55 6 -9 10 -138 5 -176 -6 -28 -8 -31 -7
-31 15 0 17 7 24 28 28 15 3 47 10 72 16 25 5 65 7 89 4 32 -5 42 -3 37 5 -9
15 -118 16 -170 1 -30 -8 -41 -8 -47 2 -5 8 -10 -1 -15 -25z"/>
<path d="M1405 2670 c-11 -18 3 -24 21 -9 16 13 16 12 6 -7 -11 -20 -8 -22 36
-34 26 -6 60 -17 75 -22 15 -6 30 -8 33 -5 3 3 -4 8 -15 12 -12 3 -19 10 -16
15 3 4 -4 6 -15 3 -28 -7 -26 15 3 27 15 6 17 9 6 9 -9 1 -22 -6 -29 -14 -7
-8 -22 -14 -34 -14 -20 2 -20 2 2 6 24 5 31 33 8 33 -7 0 -27 3 -44 6 -18 4
-32 1 -37 -6z"/>
<path d="M1580 2661 c13 -9 13 -11 0 -11 -14 -1 106 -49 122 -50 4 0 4 7 1 17
-5 12 -3 14 8 8 10 -5 11 -5 4 3 -15 15 -87 43 -79 31 4 -8 -1 -9 -17 -4 -57
18 -55 18 -39 6z"/>
<path d="M1391 2625 c-1 -11 -4 -31 -6 -45 -3 -14 -3 -19 1 -13 4 9 11 10 22
4 27 -14 65 -15 93 -2 21 11 35 9 88 -9 63 -21 97 -22 44 -2 -34 14 -149 43
-160 41 -22 -4 -73 15 -76 30 -4 12 -5 11 -6 -4z"/>
<path d="M1293 2616 c2 -6 13 -10 25 -10 13 1 19 -3 15 -12 -3 -8 1 -14 11
-14 9 0 16 8 16 19 0 14 -9 20 -35 23 -22 2 -34 0 -32 -6z"/>
<path d="M1783 2603 c-7 -2 -9 -11 -6 -19 3 -8 0 -14 -6 -14 -6 0 -11 -8 -11
-17 0 -14 2 -15 9 -4 6 9 11 10 15 2 4 -6 2 -12 -3 -12 -6 -1 -16 -2 -23 -3
-6 0 -13 -7 -16 -15 -3 -9 0 -11 9 -6 8 5 -8 -16 -36 -47 -27 -30 -65 -64 -82
-74 -18 -10 -33 -22 -33 -26 0 -5 -3 -7 -7 -6 -20 5 -94 -27 -106 -46 -14 -20
-12 -21 29 -21 24 0 44 3 44 8 0 5 5 7 12 5 12 -4 48 21 48 34 0 4 -19 -2 -42
-12 -24 -11 -52 -20 -63 -19 -11 0 9 11 45 26 36 14 72 31 80 37 13 10 13 9 1
-6 -8 -11 -9 -18 -3 -18 14 0 112 104 140 148 12 20 21 45 18 54 -2 9 0 18 4
20 12 5 -4 35 -17 31z"/>
<path d="M1717 2578 c-7 -25 0 -41 14 -33 12 8 12 42 0 49 -5 3 -11 -4 -14
-16z"/>
<path d="M1382 2528 c-19 -19 -14 -38 12 -38 13 0 43 -7 66 -15 51 -18 70 -19
70 -3 0 6 -3 9 -6 5 -4 -3 -13 1 -21 9 -22 21 -13 25 31 13 21 -6 40 -8 43 -5
7 7 -75 28 -114 30 -18 1 -35 5 -39 9 -11 11 -28 9 -42 -5z"/>
<path d="M1347 2295 c24 -11 42 -12 70 -6 l38 9 -45 1 c-25 1 -56 4 -70 6 -20
4 -19 2 7 -10z"/>
<path d="M1478 2273 c6 -2 10 -9 6 -14 -3 -5 4 -9 14 -9 11 0 22 7 26 15 4 12
-2 15 -27 14 -18 0 -26 -3 -19 -6z"/>
<path d="M1505 2220 c28 -12 55 -12 55 0 0 6 -17 10 -37 9 -31 0 -34 -2 -18
-9z"/>
<path d="M1395 2189 c-12 -4 17 -8 75 -8 66 0 88 3 73 9 -27 11 -120 11 -148
-1z"/>
<path d="M1490 2159 c20 -8 22 -12 10 -19 -12 -8 -9 -10 11 -10 15 0 26 6 26
14 0 8 -6 12 -13 9 -6 -2 -15 0 -19 6 -3 6 -14 11 -23 10 -11 0 -9 -4 8 -10z"/>
<path d="M1560 2109 c0 -6 9 -9 20 -6 11 3 18 1 14 -4 -3 -5 0 -9 5 -9 6 0 11
7 11 15 0 9 -9 15 -25 15 -14 0 -25 -5 -25 -11z"/>
<path d="M1380 2090 c0 -3 6 -12 13 -19 7 -9 8 -12 0 -7 -7 4 -9 -1 -5 -16 3
-12 7 -17 10 -10 2 7 7 10 12 7 4 -3 10 4 13 15 3 11 1 18 -4 14 -5 -3 -9 1
-9 9 0 7 -7 14 -15 14 -8 0 -15 -3 -15 -7z"/>
<path d="M1514 2045 c3 -8 1 -15 -5 -15 -6 0 -8 -4 -4 -9 3 -5 1 -12 -5 -16
-13 -8 -3 -25 13 -25 7 0 6 4 -3 10 -13 8 -12 10 3 10 11 0 15 5 11 11 -3 6 0
15 7 20 11 7 11 9 1 9 -7 0 -10 5 -7 10 3 6 1 10 -5 10 -7 0 -10 -7 -6 -15z"/>
<path d="M1480 1933 c0 -5 7 -18 16 -29 8 -10 13 -14 10 -7 -4 6 6 16 21 21
24 9 25 11 6 11 -12 1 -28 4 -37 7 -9 3 -16 2 -16 -3z"/>
<path d="M1486 1872 c-6 -10 19 -42 32 -42 4 0 14 5 22 10 10 7 11 10 3 11 -7
1 -18 2 -23 3 -6 0 -15 7 -19 15 -5 8 -11 9 -15 3z"/>
<path d="M1513 1611 c-34 -22 -65 -60 -57 -73 3 -4 0 -8 -6 -8 -6 0 -2 -10 10
-22 11 -12 20 -25 20 -29 0 -12 30 -39 44 -39 7 0 29 16 49 35 48 46 51 95 10
122 -16 10 -30 21 -33 25 -3 4 -20 -1 -37 -11z m53 -26 c0 -5 4 -23 9 -38 14
-53 -46 -88 -87 -50 -37 33 -11 82 45 84 l32 1 -30 8 -30 9 30 -2 c17 -1 30
-6 31 -12z"/>
<path d="M1622 968 l-2 -127 38 -6 c156 -26 316 -87 390 -149 46 -39 79 -101
91 -171 6 -33 13 -71 15 -85 3 -14 3 7 1 47 -10 199 -123 287 -482 373 l-42
11 -4 117 -3 117 -2 -127z"/>
<path d="M1369 808 c0 -7 0 -32 1 -56 1 -24 -3 -49 -10 -57 -8 -10 -5 -18 16
-34 15 -12 35 -21 45 -21 11 0 19 -7 19 -17 0 -15 2 -15 9 -4 8 12 14 13 36 3
14 -7 24 -8 21 -4 -3 5 13 15 36 21 53 16 88 39 88 58 0 8 -4 12 -9 8 -6 -3
-8 20 -7 55 2 33 2 60 0 60 -2 0 -10 -15 -19 -33 -16 -35 -9 -77 15 -92 7 -4
-4 -15 -27 -27 -55 -30 -166 -30 -196 0 -28 29 -18 36 26 17 47 -19 47 -19 46
8 0 12 -3 16 -6 10 -2 -7 -13 -13 -23 -13 -19 0 -35 39 -31 77 1 11 -3 24 -9
28 -5 3 -8 11 -5 16 4 5 1 9 -4 9 -6 0 -11 -6 -12 -12z"/>
<path d="M1230 656 c0 -46 23 -93 54 -110 l31 -17 -24 20 c-14 13 -21 27 -17
37 3 8 -5 32 -19 52 -18 26 -25 31 -25 18z"/>
<path d="M1740 646 c-13 -34 -13 -56 0 -56 10 0 25 68 16 77 -3 3 -10 -6 -16
-21z"/>
<path d="M1383 586 c0 -16 93 -33 119 -23 7 3 1 6 -13 6 -15 1 -40 8 -55 16
-36 19 -51 19 -51 1z"/>
<path d="M1936 535 c-4 -22 -9 -51 -11 -65 -3 -16 3 -9 15 18 13 29 17 49 11
65 -8 19 -10 17 -15 -18z"/>
<path d="M1045 533 c4 -10 8 -27 10 -38 4 -30 32 -78 37 -64 3 8 12 4 26 -11
17 -18 22 -20 22 -8 0 9 -14 28 -30 42 -17 14 -37 41 -46 61 -8 19 -17 35 -20
35 -3 0 -3 -8 1 -17z"/>
<path d="M1240 526 c0 -13 36 -46 50 -46 8 0 36 -11 62 -24 30 -15 52 -20 62
-14 8 5 47 7 86 5 38 -2 70 -1 70 4 0 4 9 5 20 2 11 -3 20 -1 20 5 0 6 -28 8
-77 5 -43 -3 -105 0 -138 6 -79 15 -78 14 -106 32 -41 26 -49 30 -49 25z"/>
<path d="M1593 515 c-20 -8 -35 -10 -38 -4 -4 5 -14 5 -26 -1 -13 -8 -19 -7
-19 0 0 6 -5 8 -10 5 -18 -11 0 -25 34 -25 35 0 95 17 111 31 14 14 -16 10
-52 -6z"/>
<path d="M1672 495 c-25 -14 -38 -26 -31 -31 6 -3 14 -2 18 4 3 6 19 15 34 21
15 6 27 15 27 21 0 12 4 13 -48 -15z"/>
<path d="M1360 358 c0 -7 22 -10 115 -13 17 0 48 2 70 6 38 6 37 6 -20 9 -119
6 -165 6 -165 -2z"/>
<path d="M1840 325 c-7 -8 -19 -15 -26 -15 -8 0 -14 -4 -14 -9 0 -5 -8 -12
-17 -14 -16 -4 -16 -5 -1 -6 18 -1 87 39 88 52 0 12 -17 8 -30 -8z"/>
<path d="M1337 316 c-6 -15 -14 -17 -45 -11 -20 4 -33 3 -29 -2 5 -4 13 -9 18
-9 5 -1 10 -2 12 -4 1 -1 10 -3 19 -5 9 -2 40 -8 69 -14 28 -6 54 -9 56 -7 10
9 -9 27 -23 22 -8 -3 -14 -1 -14 3 0 5 -7 11 -14 14 -11 4 -13 1 -9 -10 4 -11
2 -14 -8 -11 -7 2 -16 15 -19 29 -5 21 -7 22 -13 5z"/>
<path d="M1713 315 c-39 -17 -74 -22 -90 -12 -6 4 -14 3 -18 -3 -3 -5 0 -10 7
-10 10 0 9 -3 -2 -11 -12 -8 -11 -9 5 -6 63 15 135 41 135 48 0 11 2 11 -37
-6z"/>
<path d="M918 294 c15 -29 100 -96 115 -91 7 2 2 9 -12 16 -13 7 -44 32 -69
55 -26 24 -41 32 -34 20z"/>
<path d="M1180 280 l-25 -7 30 -8 c17 -4 35 -12 42 -17 7 -5 17 -7 23 -3 13 8
2 27 -13 22 -7 -2 -16 2 -22 8 -6 8 -20 9 -35 5z"/>
<path d="M1467 282 c-9 -2 -17 -8 -17 -13 0 -6 22 -9 53 -8 59 3 87 9 87 18 0
6 -93 9 -123 3z"/>
<path d="M1645 251 c-22 -4 -57 -14 -78 -21 -28 -11 -42 -11 -55 -3 -14 8 -18
7 -18 -7 0 -14 7 -17 36 -14 66 7 75 9 82 20 4 6 18 9 30 7 13 -2 32 3 43 11
22 17 20 17 -40 7z"/>
<path d="M1276 236 c4 -11 19 -16 44 -16 22 0 41 -4 44 -8 9 -16 62 -11 91 8
32 21 18 28 -17 9 -20 -11 -74 -4 -150 17 -13 4 -16 1 -12 -10z"/>
<path d="M1546 131 c-3 -5 -53 -8 -111 -8 -58 0 -108 -2 -111 -5 -3 -3 25 -9
61 -13 60 -6 134 -2 220 11 41 7 48 18 7 12 -18 -3 -35 -1 -38 4 -7 11 -21 10
-28 -1z"/>
</g>
</svg>
